<svg xmlns="http://www.w3.org/2000/svg" enable-background="new 0 0 64 64" viewBox="0 0 64 64" id="joypad">
  <path d="M63.35,33.94c0,0-2.08-17.28-12.13-16.54c0,0-4.43-0.19-7.14,3.77c-0.73,1.07-1.92,1.74-3.22,1.74h-5.2l-0.38-2.15
		c-0.08-0.48-0.5-0.83-0.99-0.83h-1.5v-2.69c0-1.49,1.21-2.7,2.7-2.7c2.37,0,4.3-1.93,4.3-4.3V6.56c0-0.44-0.36-0.8-0.8-0.8
		c-0.44,0-0.8,0.36-0.8,0.8v3.69c0,1.49-1.21,2.7-2.7,2.7c-2.37,0-4.3,1.93-4.3,4.3v2.69h-1.5c-0.49,0-0.9,0.35-0.98,0.83
		l-0.38,2.15h-5.2c-1.3,0-2.49-0.67-3.22-1.74c-2.71-3.97-7.14-3.77-7.14-3.77C2.73,16.66,0.65,33.94,0.65,33.94
		s-3.19,20.83,4.53,23.89c5.82,2.31,10.32-5.63,12.18-9.67c0.68-1.47,1.96-2.58,3.52-3c7.41-1.99,14.82-1.99,22.22,0
		c1.56,0.42,2.85,1.53,3.52,3c1.86,4.04,6.36,11.98,12.18,9.67C66.53,54.77,63.35,33.94,63.35,33.94z M20.36,35.75h-4.88v4.88h-3.35
		v-4.88H7.25V32.4h4.88v-4.88h3.35v4.88h4.88V35.75z M28.86,29.83H25v-2.23h3.86V29.83z M39,29.83h-3.86v-2.23H39V29.83z
		 M44.93,36.06c-1.17,0-2.12-0.95-2.12-2.12c0-1.17,0.95-2.12,2.12-2.12c1.17,0,2.12,0.95,2.12,2.12
		C47.06,35.11,46.11,36.06,44.93,36.06z M49.78,40.9c-1.17,0-2.12-0.95-2.12-2.12c0-1.17,0.95-2.12,2.12-2.12
		c1.17,0,2.12,0.95,2.12,2.12C51.9,39.95,50.95,40.9,49.78,40.9z M49.78,31.21c-1.17,0-2.12-0.95-2.12-2.12
		c0-1.17,0.95-2.12,2.12-2.12c1.17,0,2.12,0.95,2.12,2.12C51.9,30.26,50.95,31.21,49.78,31.21z M54.63,36.06
		c-1.17,0-2.12-0.95-2.12-2.12c0-1.17,0.95-2.12,2.12-2.12c1.17,0,2.12,0.95,2.12,2.12C56.75,35.11,55.8,36.06,54.63,36.06z"></path>
</svg>
