<svg xmlns="http://www.w3.org/2000/svg" xml:space="preserve" id="magnifying-glass" x="0" y="0" style="enable-background:new 0 0 100 100" version="1.1" viewBox="0 0 100 100">
  <path id="Magnifying_Glass" d="M41,20c0,1.657-1.342,3-3,3c-8.271,0-15,6.729-15,15c0,1.657-1.342,3-3,3s-3-1.343-3-3
	c0-11.58,9.422-21,21-21C39.658,17,41,18.343,41,20z M95,80c0,8.271-6.729,15-15,15c-0.797,0-1.559-0.316-2.121-0.879l-18-18
	C59.316,75.559,59,74.795,59,74c0-3.052,0.927-5.887,2.499-8.259l-2.398-2.398C53.376,68.118,46.02,71,38,71
	C19.804,71,5,56.196,5,38S19.804,5,38,5s33,14.804,33,33c0,8.02-2.881,15.376-7.656,21.101l2.398,2.398
	C68.113,59.927,70.948,59,74,59c0.797,0,1.559,0.316,2.121,0.879l18,18C94.684,78.441,95,79.205,95,80z M38,65
	c14.889,0,27-12.113,27-27S52.889,11,38,11S11,23.113,11,38S23.111,65,38,65z M88.924,81.167l-16.09-16.093
	c-4.031,0.524-7.233,3.727-7.758,7.758l16.09,16.093C85.197,88.401,88.399,85.199,88.924,81.167z"></path>
</svg>
